<?xml version="1.0" encoding="UTF-8" standalone="no"?>
<!-- Created with Inkscape (http://www.inkscape.org/) -->

<svg
   width="210mm"
   height="210mm"
   viewBox="0 0 210 210"
   version="1.1"
   id="svg5"
   xml:space="preserve"
   xmlns:xlink="http://www.w3.org/1999/xlink"
   xmlns="http://www.w3.org/2000/svg"
   xmlns:svg="http://www.w3.org/2000/svg"><defs
     id="defs2"><linearGradient
       id="linearGradient8922"><stop
         style="stop-color:#a6e3a1;stop-opacity:1;"
         offset="0.08985507"
         id="stop8918" /><stop
         style="stop-color:#94e2d5;stop-opacity:1;"
         offset="0.99710149"
         id="stop8920" /></linearGradient><linearGradient
       xlink:href="#linearGradient8922"
       id="linearGradient8926"
       x1="-0.00035133952"
       y1="256"
       x2="511.99994"
       y2="256"
       gradientUnits="userSpaceOnUse" /><linearGradient
       xlink:href="#linearGradient8922"
       id="linearGradient15540"
       gradientUnits="userSpaceOnUse"
       x1="-0.00035133952"
       y1="256"
       x2="511.99994"
       y2="256" /><linearGradient
       xlink:href="#linearGradient8922"
       id="linearGradient15542"
       gradientUnits="userSpaceOnUse"
       x1="-0.00035133952"
       y1="256"
       x2="511.99994"
       y2="256" /></defs><g
     id="layer1"><g
       id="g15"
       transform="matrix(0.26576801,0,0,0.26326251,36.963445,37.604797)"
       style="opacity:1;fill:url(#linearGradient8926);fill-opacity:1">
	<path
   class="st0"
   d="m 511.827,319.302 c -1.651,2.486 -3.402,4.953 -5.32,7.364 C 455.808,390.172 373.073,402.938 256,402.938 138.943,402.938 56.208,390.172 5.509,326.673 3.591,324.255 1.84,321.787 0.172,319.301 -0.829,358.367 2.04,393.356 21.935,419.765 66.514,478.97 141.361,492.219 256,492.219 c 114.655,0 189.502,-13.25 234.097,-72.453 19.879,-26.409 22.731,-61.398 21.73,-100.464 z"
   id="path11"
   style="fill:url(#linearGradient15540);fill-opacity:1" />
	<path
   class="st0"
   d="m 256,381.925 c 114.638,0 189.502,-12.499 234.08,-68.359 31.303,-39.216 19.112,-95.31 1.601,-143.757 C 472.786,117.568 459.227,83.455 419.819,55.096 380.411,26.736 316.921,19.781 256,19.781 c -60.906,0 -124.395,6.955 -163.82,35.314 -39.391,28.36 -52.95,62.472 -71.845,114.713 -17.51,48.448 -29.702,104.541 1.601,143.757 44.578,55.861 119.425,68.36 234.064,68.36 z m -52.583,-87.697 4.002,-32.062 h 97.161 l 4.019,32.062 z M 214.523,78.801 h 82.952 l 3.235,25.908 h -89.423 z m -86.72,14.318 c 3.018,-9.164 11.574,-15.359 21.214,-15.359 h 49.414 l -5.387,43.06 h 125.912 l -1.134,-9.055 -4.253,-34.004 h 49.415 c 9.656,0 18.211,6.195 21.23,15.359 l 23.598,71.762 H 306.449 c -1.185,-2.969 -2.752,-5.72 -4.704,-8.122 -5.137,-6.329 -12.291,-10.623 -20.179,-13.459 -7.905,-2.826 -16.677,-4.194 -25.566,-4.202 -11.824,0.025 -23.481,2.41 -33.155,7.546 -4.819,2.586 -9.155,5.896 -12.574,10.115 -1.951,2.402 -3.519,5.153 -4.703,8.122 H 104.204 Z m 162.585,87.863 c -2.118,2.877 -6.47,5.987 -12.524,8.164 -6.07,2.234 -13.725,3.56 -21.864,3.552 -10.84,0.025 -20.83,-2.394 -27.367,-6.021 -3.235,-1.776 -5.587,-3.794 -7.004,-5.695 z M 224.73,164.881 c 2.686,-2.502 6.472,-4.761 11.141,-6.421 5.87,-2.102 12.942,-3.26 20.13,-3.252 9.589,-0.026 18.978,2.084 25.566,5.636 2.268,1.218 4.186,2.586 5.737,4.036 H 224.73 Z M 71.267,265.085 98.918,180.982 h 105.233 c 0.833,3.478 2.385,6.721 4.469,9.498 4.787,6.412 11.874,10.799 19.996,13.792 8.172,2.977 17.528,4.52 27.384,4.527 13.158,-0.024 25.416,-2.718 35.122,-8.012 4.853,-2.661 9.089,-6.021 12.274,-10.307 2.068,-2.777 3.636,-6.02 4.47,-9.498 h 105.232 l 27.651,84.103 c 2.235,6.813 1.068,14.276 -3.135,20.071 -4.186,5.804 -10.907,9.24 -18.078,9.24 h -94.692 l -6.038,-48.331 H 193.21 l -6.037,48.331 H 92.481 c -7.155,0 -13.892,-3.436 -18.095,-9.24 -4.203,-5.795 -5.353,-13.258 -3.119,-20.071 z"
   id="path13"
   style="fill:url(#linearGradient15542);fill-opacity:1" />
</g></g><style
     type="text/css"
     id="style9">
	.st0{fill:#000000;}
</style></svg>
